<svg width="14" height="14" viewBox="0 0 14 14" fill="none" xmlns="http://www.w3.org/2000/svg">
<path d="M12.0475 5.85023H8.14977V1.95251C8.14977 1.1697 7.51523 0.535156 6.73242 0.535156C5.94962 0.535156 5.31507 1.1697 5.31507 1.95251V5.85023H1.41735C0.634548 5.85023 0 6.48477 0 7.26758C0 8.05038 0.634548 8.68493 1.41735 8.68493H5.31507V12.5826C5.31507 13.3655 5.94962 14 6.73242 14C7.51523 14 8.14977 13.3655 8.14977 12.5826V8.68493H12.0475C12.8303 8.68493 13.4648 8.05038 13.4648 7.26758C13.4648 6.48477 12.8303 5.85023 12.0475 5.85023Z" fill="white"/>
</svg>
