<svg width="21" height="21" viewBox="0 0 21 21" fill="none" xmlns="http://www.w3.org/2000/svg">
<path d="M18.8693 1.74707H18.2478V3.49502C18.2478 3.81664 17.9868 4.07766 17.6651 4.07766C17.3435 4.07766 17.0825 3.81664 17.0825 3.49502V1.74707H14.7519V3.49502C14.7519 3.81664 14.4909 4.07766 14.1692 4.07766C13.8476 4.07766 13.5866 3.81664 13.5866 3.49502V1.74707H11.256V3.49502C11.256 3.81664 10.995 4.07766 10.6734 4.07766C10.3517 4.07766 10.0907 3.81664 10.0907 3.49502V1.74707H7.76012V3.49502C7.76012 3.81664 7.49909 4.07766 7.17747 4.07766C6.85584 4.07766 6.59482 3.81664 6.59482 3.49502V1.74707H4.26423V3.49502C4.26423 3.81664 4.0032 4.07766 3.68158 4.07766C3.35996 4.07766 3.09893 3.81664 3.09893 3.49502V1.74707H2.47744C1.51374 1.74707 0.729492 2.53131 0.729492 3.49502V6.40826H20.6172V3.49502C20.6172 2.53131 19.833 1.74707 18.8693 1.74707Z" fill="#307CAE"/>
<path d="M13.004 15.148C13.3253 15.148 13.5867 14.8866 13.5867 14.5653V12.2347C13.5867 11.9135 13.3253 11.6521 13.004 11.6521C12.6828 11.6521 12.4214 11.9135 12.4214 12.2347V14.5653C12.4214 14.8866 12.6828 15.148 13.004 15.148Z" fill="#307CAE"/>
<path d="M0.729492 18.7215C0.729492 19.6852 1.51374 20.4694 2.47744 20.4694H18.8693C19.833 20.4694 20.6172 19.6852 20.6172 18.7215V7.57349H0.729492V18.7215ZM11.256 12.2347C11.256 11.2709 12.0401 10.4867 13.004 10.4867C13.9678 10.4867 14.7519 11.2709 14.7519 12.2347V14.5653C14.7519 15.5291 13.9678 16.3132 13.004 16.3132C12.0401 16.3132 11.256 15.5291 11.256 14.5653V12.2347ZM8.34276 14.0215C8.02099 14.0215 7.76012 13.7606 7.76012 13.4388C7.76012 13.117 8.02099 12.8562 8.34276 12.8562C8.66404 12.8562 8.92541 12.5948 8.92541 12.2735C8.92541 11.9522 8.66404 11.6909 8.34276 11.6909C8.02149 11.6909 7.76012 11.9522 7.76012 12.2735C7.76012 12.5953 7.49924 12.8562 7.17747 12.8562C6.85569 12.8562 6.59482 12.5953 6.59482 12.2735C6.59482 11.3097 7.37895 10.5256 8.34276 10.5256C9.30658 10.5256 10.0907 11.3097 10.0907 12.2735C10.0907 12.7209 9.92159 13.1293 9.64421 13.4388C9.92162 13.7483 10.0907 14.1568 10.0907 14.6041C10.0907 15.5679 9.30658 16.3521 8.34276 16.3521C7.37895 16.3521 6.59482 15.5679 6.59482 14.6041C6.59482 14.2823 6.85569 14.0215 7.17747 14.0215C7.49924 14.0215 7.76012 14.2823 7.76012 14.6041C7.76012 14.9254 8.02149 15.1868 8.34276 15.1868C8.66404 15.1868 8.92541 14.9254 8.92541 14.6041C8.92541 14.2828 8.66404 14.0215 8.34276 14.0215Z" fill="#307CAE"/>
<path d="M4.26417 1.16444C4.26417 0.842814 4.00315 0.581787 3.68153 0.581787C3.3599 0.581787 3.09888 0.842814 3.09888 1.16444V1.74708H4.26417V1.16444Z" fill="#307CAE"/>
<path d="M7.76002 1.16444C7.76002 0.842814 7.499 0.581787 7.17737 0.581787C6.85575 0.581787 6.59473 0.842814 6.59473 1.16444V1.74708H7.76002V1.16444Z" fill="#307CAE"/>
<path d="M11.2561 1.16444C11.2561 0.842814 10.9951 0.581787 10.6735 0.581787C10.3518 0.581787 10.0908 0.842814 10.0908 1.16444V1.74708H11.2561V1.16444Z" fill="#307CAE"/>
<path d="M14.752 1.16444C14.752 0.842814 14.4909 0.581787 14.1693 0.581787C13.8477 0.581787 13.5867 0.842814 13.5867 1.16444V1.74708H14.752V1.16444Z" fill="#307CAE"/>
<path d="M18.2478 1.16444C18.2478 0.842814 17.9868 0.581787 17.6652 0.581787C17.3435 0.581787 17.0825 0.842814 17.0825 1.16444V1.74708H18.2478V1.16444Z" fill="#307CAE"/>
</svg>
