<svg width="19" height="18" viewBox="0 0 19 18" fill="none" xmlns="http://www.w3.org/2000/svg">
<path d="M9.32544 2.63672C5.81671 2.63672 2.96216 5.49127 2.96216 9C2.96216 12.5087 5.81671 15.3633 9.32544 15.3633C12.8342 15.3633 15.6887 12.5087 15.6887 9C15.6887 5.49127 12.8342 2.63672 9.32544 2.63672ZM9.85278 9.21843L6.69037 12.3808L5.9446 11.6351L8.7981 8.78157V4.21875H9.85278V9.21843Z" fill="#307CAE"/>
<path d="M9.32422 0C4.35365 0 0.324219 4.02943 0.324219 9C0.324219 13.9706 4.35365 18 9.32422 18C14.2948 18 18.3242 13.9706 18.3242 9C18.3242 4.02943 14.2948 0 9.32422 0ZM9.32422 16.418C5.23393 16.418 1.90625 13.0903 1.90625 9C1.90625 4.90971 5.23393 1.58203 9.32422 1.58203C13.4145 1.58203 16.7422 4.90971 16.7422 9C16.7422 13.0903 13.4145 16.418 9.32422 16.418Z" fill="#307CAE"/>
</svg>
