<svg width="28" height="17" viewBox="0 0 28 17" fill="none" xmlns="http://www.w3.org/2000/svg">
<g opacity="0.5">
<path d="M27.6506 7.53606C27.6506 7.53606 20.0692 0 14.0008 0C7.93238 0 0.350946 7.53606 0.350946 7.53606C-0.114932 7.97305 -0.119027 8.69038 0.350946 9.11907C0.350946 9.11907 7.93238 16.6552 14.0008 16.6552C20.0692 16.6552 27.6506 9.11907 27.6506 9.11907C28.1123 8.68213 28.1206 7.96896 27.6506 7.53606ZM14.0585 14.396C10.7233 14.396 8.01483 11.6916 8.01483 8.35233C8.01483 5.0131 10.7192 2.30864 14.0585 2.30864C17.3978 2.30864 20.1022 5.01714 20.1022 8.35233C20.1022 11.6875 17.3937 14.396 14.0585 14.396Z" fill="#152747"/>
<path d="M13.9884 4.44434C11.8694 4.44434 10.1503 6.17167 10.1503 8.29482C10.1503 10.4179 11.8694 12.1453 13.9884 12.1453C16.1074 12.1453 17.8265 10.4179 17.8265 8.29482C17.8265 6.17172 16.1075 4.44434 13.9884 4.44434ZM15.4355 8.30721C14.78 8.30721 14.2441 7.77122 14.2441 7.10752C14.2441 6.44381 14.78 5.90788 15.4355 5.90788C16.0909 5.90788 16.6269 6.44381 16.6269 7.10752C16.6269 7.77122 16.0992 8.30721 15.4355 8.30721Z" fill="#152747"/>
</g>
</svg>
