<svg xmlns="http://www.w3.org/2000/svg" viewBox="678.8571428571429 52.577999999999996 694.8571428571429 560.0699999999999" version="1.1" style="max-height: 500px" width="694.8571428571429" height="560.0699999999999">
<path fill="#FDFDFD" d="m0 0h22l9 2 10 1 13 5 5 1h8l11 6 3 2 9 3 7 4 9 5 11 8 12 10 8 7 9 10 7 8 5 6 4 7 6 12 5 7 1 9 10-1h12l20 1 22 10 15 10 10 9 1 4 4 2 4 5 6 11 8 16 3 17 1 5v22l-2 5-1 14-6 11-8 16-4 5-5 4-2 5-5 2-3 5-15 9-10 5-9 4-12 1-3 2-175 1-3 7-1 7 73 1 1 4-8 6-3 5h-4l-1 5-6 3-9 10-6 4h-2l-2 5-9 7-11 10-10 8-7 6-4 6-5 2-3 4-5 2-2 2-2 5-5 1-2 5-10 8-2 2-4 2-2 4-10 9-9 7-12 12-7-1v-7l8-17 2-8 4-8 3-9 6-12 2-10 4-7 1-4h-60l-2-5 2-10 4-8 4-11 5-10 3-10 3-5 3-12 2-6h-205l-10-6-6-8-3-9v-7l3-11 10-10 12-3 18 1-4-11-3-8 1-28 5-10 2-6 5-8 11-12 9-6 16-8h40l4-19 2-7 1-11 7-12 3-11 6-9 4-8 3-3 2-7 6-4 6-9 18-18 11-8 8-6 7-5 8-2v-2l3-2 9-3 15-7 13-2 13-4zm-270 266-8 4-5 7-1 11 3 9 4 4 7 3h20l2-3 3-16 7-17v-2z" transform="translate(1025,92)"/>
<path fill="#030303" d="m0 0h22l9 2 10 1 13 5 5 1h8l11 6 3 2 9 3 7 4 9 5 11 8 12 10 8 7 9 10 7 8 5 6 4 7 6 12 5 7 1 9 10-1h12l20 1 22 10 15 10 10 9 1 4 4 2 4 5 6 11 8 16 3 17 1 5v22l-2 5-1 14-6 11-8 16-4 5-5 4-2 5-5 2-3 5-15 9-10 5-9 4-12 1-3 2-175 1-3 7-1 7 73 1 1 4-8 6-3 5h-4l-1 5-6 3-9 10-6 4h-2l-2 5-9 7-11 10-10 8-7 6-4 6-5 2-3 4-5 2-2 2-2 5-5 1-2 5-10 8-2 2-4 2-2 4-10 9-9 7-12 12-7-1v-7l8-17 2-8 4-8 3-9 6-12 2-10 4-7 1-4h-60l-2-5 2-10 4-8 4-11 5-10 3-10 3-5 3-12 2-6h-205l-10-6-6-8-3-9v-7l3-11 10-10 12-3 18 1-4-11-3-8 1-28 5-10 2-6 5-8 11-12 9-6 16-8h40l4-19 2-7 1-11 7-12 3-11 6-9 4-8 3-3 2-7 6-4 6-9 18-18 11-8 8-6 7-5 8-2v-2l3-2 9-3 15-7 13-2 13-4zm-9 9-18 4-12 4-9 2-8 4-9 3-22 14-7 5-3 3-5 2-2 5-5 3h-2l-2 6-7 8-6 5-6 10-5 9-6 9-1 7-4 6-4 9-1 10-4 14-4 22-5-1-18-3h-15l-1 1-12 2-8 6-9 6-5 4-6 9-4 9-5 12-1 5v11l4 12 4 6 2 12v2h-30l-8 4-5 7-1 11 3 9 4 4 9 4h464l26-5 16-7 8-7 6-4 10-10 6-9 4-4 1-7 5-7 5-30-1-14-3-12-2-10-4-8-2-7-7-8-8-10-11-9-24-14-2-1-16-2-7-1h-13l-4 1h-7l-4-5-3-6-3-9-10-16-6-9-2-2h-3l-2-6-4-2-3-7-6-2-3-6-7-2-2-5-7-4-9-6-6-2-4-4h-3l-1-3h-6l-9-6-10-1-14-5-13-3z" transform="translate(1025,92)"/>
<path fill="#FED33D" d="m0 0h77l-1 6-5 9-1 6h71l-2 4-14 12-11 9-8 7-4 3-1 4-6 2-3 4-1 3-7 2-3 5-4 1-1 5-4 3-4 1-2 4-10 8-12 11-11 9-7 7-6 4-2 4-6 3-3 2 1-7 7-13 2-8 7-14 2-10 4-8 2-8h-65l1-5 5-9 7-18 7-17 3-5 2-9 4-6z" transform="translate(969,405)"/>
<path fill="#040404" d="m0 0h7l1 1v12l-8 24-2 14-3 9-1 2-1 12-5 12-3 2h-9l-5-6-3-15-8-19-1-10-6-10-2-1-1 9-5 14-2 10-8 19-2 8-3 1h-8l-4-7-7-20-2-14-4-11-1-12-7-18-1-3 5-2h8l2 7 8 27 2 16 6 20 2-2 5-14 2-11 7-16 2-13 2-3 12 1 2 2 6 16 1 2 1 10 5 11 1 12 3 4 3-1 2-4 2-16 8-25 1-15z" transform="translate(865,656)"/>
<path fill="#030303" d="m0 0 12 1 2 8 1 26 9-7 5-3 8-1 9 2 10 8 4 10 1 4v40l-4 3-6-1-1-1-1-43-4-7-5-3-4-1h-7l-7 3-5 6-2 4-1 39-4 4-6-1-4-3z" transform="translate(889,653)"/>
<path fill="#070707" d="m0 0h8l9 3 9 7 7 9 1 3v25l-4 8-7 8-9 4-13 1-14-5-5-5-1 30-4 6-5 1-1-1v-93l7 1 3 8 5-1 11-8zm-3 9-10 6-6 9-1 2v14l3 9 5 6 7 3 5 1h7l9-3 5-6 4-13-2-12-4-8-8-6-4-2z" transform="translate(1155,677)"/>
<path fill="#060606" d="m0 0h10l11 4 8 6 4 5 5 10 1 3v13l-4 9-4 6-6 7-10 4h-19l-10-4-6-5-7-12-2-7v-8l5-13 6-8 8-6zm2 9-10 4-7 6-3 12v7l3 11 4 5 7 4 5 1h8l10-4 8-7 2-9-1-14-3-6-8-7-9-3z" transform="translate(993,677)"/>
<path fill="#040404" d="m0 0h10l10 4 8 7 7 8 2 5v23l-4 7-8 8-9 4-13 2-11-2-10-5-6-8-4-13v-10l3-13 7-8 11-7zm-1 9-10 6-5 6-4 9v10l5 10 4 5 7 3 5 1h8l10-4 5-5 4-8 1-3v-8l-4-10-4-6-12-6z" transform="translate(1072,677)"/>
<path fill="#050505" d="m0 0h11l11 4 5 4 2 3v5l-9-2-8-4h-14l-5 3-1 2v7l4 4 10 4 13 2 6 4 6 6 1 9-4 8-5 5-8 3h-22l-10-4-5-5 1-6 1-2 4 1 4 4 7 3 6 1h8l7-2 3-3v-6l-4-6-2-1-14-2-9-4-7-5-3-5v-8l5-8 8-7z" transform="translate(1222,677)"/>
<path fill="#0A0A0A" d="m0 0h5l1 1v7l-2 1-9 1-4 3v5l5 1 1 5-6 7-9 3-19 9-7 2-5-1 1-4 9-6 7-1 9-6 6-3h3v-2l-5-2-8-4-1-4 2-2 16-5z" transform="translate(843,481)"/>
<path fill="#040404" d="m0 0 7 1 8 4 10 3 5 3-2 5-6 6h-2l4 4 8 4 13 5 9 3-1 8-5-1-14-7-7-2-6-4-9-3-4-5 1-5 4-4 1-3-6-2-9-5z" transform="translate(1160,493)"/>
<path fill="#090909" d="m0 0h10l1 1v23l-2 13-1 17-1 7h-4l-3-9z" transform="translate(1273,656)"/>
<path fill="#070707" d="m0 0 8 1 5 4 6 10-1 6-6 9-8 4-8-2-5-4-2-3v-16l4-5zm-1 9-4 4-1 4 3 7 2 1h7l5-5-1-9-3-2z" transform="translate(1112,490)"/>
<path fill="#010101" d="m0 0h50l-1 7-1 1h-47l-2-3z" transform="translate(1020,313)"/>
<path fill="#080808" d="m0 0 3 1v7l-6 7 6 2v7l-3 1-6-5-4 1-3 3h-6l-2-2 1-4 5-3h3l-5-5-2-4h-2v-3l4-2h3l2 5 5-1z" transform="translate(1171,435)"/>
<path fill="#060606" d="m0 0h8l6 4 4 4v6l-4 7-2 1h-17l-1-2v-12l2-5zm2 6-2 2v8l7 1 3-2v-7l-4-2z" transform="translate(864,428)"/>
<path fill="#060606" d="m0 0 4 4v9h10l2 1-1 5h-11v11l-5 1-2-3-1-8-10-2v-5h11v-9l1-3z" transform="translate(897,499)"/>
<path fill="#010101" d="m0 0 5 1 5 5v8l-3 4-11 1-1-1v-15z" transform="translate(1146,254)"/>
<path fill="#010101" d="m0 0h7l5 5 1 7-4 5-7 1-5-5-1-5z" transform="translate(933,255)"/>
<path fill="#060606" d="m0 0 7 1 4 3v6l-4 4h-6l-3-3 1-10z" transform="translate(1274,730)"/>
<path fill="#0B0B0B" d="m0 0h6l4 4 1 4 5 2 1 3-1 2h-8l-8-8-2-3v-3z" transform="translate(750,239)"/>
<path fill="#1A1A1A" d="m0 0h11l1 1v7l-1 1h-11l-6-1 1-5z" transform="translate(739,279)"/>
<path fill="#010101" d="m0 0 5 1v17l-5 1-1-1v-17z" transform="translate(792,220)"/>
</svg>