<svg width="62" height="63" viewBox="0 0 62 63" fill="none" xmlns="http://www.w3.org/2000/svg">
<path d="M31.0605 0.684021C13.9917 0.684021 0.151398 14.5222 0.151398 31.5931C0.151398 48.6641 13.9903 62.5023 31.0605 62.5023C48.1321 62.5023 61.9696 48.6641 61.9696 31.5931C61.9696 14.5222 48.1321 0.684021 31.0605 0.684021ZM31.0605 9.92621C36.7085 9.92621 41.2853 14.5045 41.2853 20.15C41.2853 25.7969 36.7085 30.3739 31.0605 30.3739C25.4152 30.3739 20.8385 25.7969 20.8385 20.15C20.8385 14.5045 25.4152 9.92621 31.0605 9.92621ZM31.0537 54.4209C25.4207 54.4209 20.2615 52.3694 16.2821 48.9737C15.3127 48.1468 14.7533 46.9343 14.7533 45.6621C14.7533 39.9365 19.3871 35.3541 25.1138 35.3541H37.0099C42.738 35.3541 47.3541 39.9365 47.3541 45.6621C47.3541 46.9357 46.7975 48.1454 45.8267 48.9723C41.8487 52.3694 36.6881 54.4209 31.0537 54.4209Z" fill="#989898"/>
</svg>
