<svg width="54" height="54" viewBox="0 0 54 54" fill="none" xmlns="http://www.w3.org/2000/svg">
<rect opacity="0.15" x="0.286621" y="0.703125" width="53.2402" height="53.2402" rx="5" fill="#039C85"/>
<path d="M39.0323 29.7358L33.1994 19.3364C30.8244 15.102 24.7092 15.1002 22.3333 19.3364L16.5004 29.7358C14.3042 33.6517 17.1446 38.4864 21.6279 38.4864H33.9048C38.4339 38.4864 41.2048 33.6093 39.0323 29.7358ZM33.9048 36.6094H21.6279C18.5531 36.6094 16.6578 33.2932 18.1381 30.6538L23.971 20.2544C25.6303 17.2961 29.9021 17.2954 31.5617 20.2544L37.3946 30.6538C38.8766 33.2959 36.9767 36.6094 33.9048 36.6094ZM28.7407 22.6906V28.2279C28.7407 28.7463 28.3204 29.1664 27.8018 29.1664C27.2834 29.1664 26.863 28.7463 26.863 28.2279V22.6906C26.863 22.1723 27.2834 21.752 27.8018 21.752C28.3204 21.752 28.7407 22.1723 28.7407 22.6906ZM28.7053 31.9351V32.858C28.7053 33.3762 28.2848 33.7963 27.7664 33.7963C27.2479 33.7963 26.8276 33.3762 26.8276 32.858V31.9351C26.8276 31.4166 27.2479 30.9965 27.7664 30.9965C28.2848 30.9965 28.7053 31.4166 28.7053 31.9351Z" fill="#039C85"/>
</svg>
